<svg width="100" height="95" viewBox="0 0 100 95" fill="none" xmlns="http://www.w3.org/2000/svg">
<path fill-rule="evenodd" clip-rule="evenodd" d="M69.1897 43.8769C67.7423 43.0748 66.3156 42.1851 64.924 41.2007C64.043 40.5775 63.1782 39.9179 62.3329 39.2204C61.4631 40.5546 60.6152 42.0976 59.8024 43.8769H69.1897ZM50.6772 50.2979C47.6954 60.7823 45.912 75.0811 45.912 94.1748H52.3322C52.3322 74.1877 54.3307 60.0421 57.376 50.2979H92.4337C93.8143 50.3544 95.1258 50.3502 96.3493 50.2946L99.9998 50.1286L99.3648 46.5294C98.3969 41.0442 94.5268 35.2005 89.5452 31.0577C84.5475 26.9016 77.8019 23.9504 70.8295 25.3451C67.6651 25.978 64.6711 27.4597 61.9348 29.8615C56.3011 23.2575 52.3322 13.7116 52.3322 0H45.912C45.912 15.6653 50.6805 26.8938 57.6425 34.7082C55.9543 37.1055 54.4146 39.9684 53.0531 43.3208C52.9784 43.5045 52.9043 43.6899 52.8306 43.8769H0.970703V50.2979H50.6772ZM66.5459 34.372C67.2294 34.9309 67.9256 35.4592 68.6313 35.9584C76.0726 41.2221 84.801 43.3975 91.7329 43.833C90.4042 41.1333 88.2212 38.3075 85.4404 35.9949C81.3094 32.5595 76.4853 30.7619 72.0886 31.6414C70.3163 31.9959 68.4289 32.8247 66.5459 34.372Z" fill="#C5821C"/>
</svg>
