<svg width="30" height="33" viewBox="0 0 30 33" fill="none" xmlns="http://www.w3.org/2000/svg">
<path d="M14.9998 19.3333C17.7613 19.3333 19.9998 17.0947 19.9998 14.3333C19.9998 11.5719 17.7613 9.33329 14.9998 9.33329C12.2384 9.33329 9.99984 11.5719 9.99984 14.3333C9.99984 17.0947 12.2384 19.3333 14.9998 19.3333Z" stroke="#172335" stroke-width="2" stroke-linecap="round" stroke-linejoin="round"/>
<path d="M24.4282 23.7615L17.3565 30.8332C16.7315 31.4576 15.8841 31.8083 15.0007 31.8083C14.1172 31.8083 13.2699 31.4576 12.6448 30.8332L5.57151 23.7615C3.70688 21.8968 2.43707 19.521 1.92266 16.9347C1.40824 14.3483 1.67233 11.6674 2.68152 9.2311C3.6907 6.79479 5.39967 4.71245 7.59231 3.24739C9.78495 1.78234 12.3628 1.00037 14.9998 1.00037C17.6369 1.00037 20.2147 1.78234 22.4074 3.24739C24.6 4.71245 26.309 6.79479 27.3182 9.2311C28.3274 11.6674 28.5914 14.3483 28.077 16.9347C27.5626 19.521 26.2928 21.8968 24.4282 23.7615Z" stroke="#172335" stroke-width="2" stroke-linecap="round" stroke-linejoin="round"/>
</svg>
