<svg width="10" height="13" viewBox="0 0 10 13" fill="none" xmlns="http://www.w3.org/2000/svg">
<path d="M8.50004 2.11332C7.57178 1.18506 6.31279 0.663574 5.00004 0.663574C3.68729 0.663574 2.4283 1.18506 1.50004 2.11332C0.571783 3.04158 0.050293 4.30057 0.050293 5.61332C0.050293 6.92608 0.571783 8.18506 1.50004 9.11332L4.57421 12.1933C4.62844 12.248 4.69295 12.2914 4.76404 12.321C4.83512 12.3506 4.91137 12.3659 4.98837 12.3659C5.06538 12.3659 5.14162 12.3506 5.21271 12.321C5.28379 12.2914 5.34831 12.248 5.40254 12.1933L8.50004 9.08416C9.42442 8.15976 9.94373 6.90602 9.94373 5.59874C9.94373 4.29146 9.42442 3.03772 8.50004 2.11332ZM7.66587 8.24999L5.00004 10.9275L2.33421 8.24999C1.80754 7.72284 1.44898 7.05138 1.30386 6.32049C1.15874 5.5896 1.23357 4.83209 1.51888 4.14372C1.8042 3.45535 2.2872 2.86702 2.90682 2.4531C3.52645 2.03918 4.25488 1.81826 5.00004 1.81826C5.7452 1.81826 6.47363 2.03918 7.09326 2.4531C7.71288 2.86702 8.19588 3.45535 8.4812 4.14372C8.76651 4.83209 8.84134 5.5896 8.69622 6.32049C8.5511 7.05138 8.19254 7.72284 7.66587 8.24999ZM3.25004 3.82249C2.77912 4.29486 2.51469 4.93465 2.51469 5.60166C2.51469 6.26866 2.77912 6.90845 3.25004 7.38082C3.5999 7.73128 4.04547 7.97062 4.53084 8.06881C5.01621 8.167 5.51976 8.11966 5.97833 7.93274C6.4369 7.74583 6.83006 7.42765 7.10849 7.01813C7.38691 6.60862 7.5382 6.126 7.54337 5.63082C7.546 5.30019 7.48231 4.97239 7.35607 4.6668C7.22982 4.36121 7.04359 4.08403 6.80837 3.85166C6.57718 3.61516 6.3015 3.42672 5.9972 3.29718C5.6929 3.16763 5.36599 3.09955 5.03527 3.09684C4.70456 3.09413 4.37657 3.15684 4.07019 3.28138C3.76381 3.40592 3.48508 3.58981 3.25004 3.82249ZM5.98587 6.55249C5.76482 6.77692 5.47266 6.9176 5.15936 6.95047C4.84607 6.98334 4.53108 6.90636 4.26825 6.7327C4.00543 6.55903 3.81109 6.29946 3.71846 5.99837C3.62583 5.69728 3.64067 5.37336 3.76043 5.082C3.8802 4.79063 4.09745 4.54991 4.37505 4.401C4.65265 4.25209 4.97335 4.20423 5.28234 4.2656C5.59132 4.32697 5.86939 4.49376 6.069 4.73746C6.26862 4.98116 6.37739 5.28664 6.37671 5.60166C6.36822 5.96173 6.21716 6.30371 5.95671 6.55249H5.98587Z" fill="#172335"/>
</svg>
