<svg width="14" height="14" viewBox="0 0 14 14" fill="none" xmlns="http://www.w3.org/2000/svg">
<path d="M11.3402 7.58334C11.2118 7.58334 11.0777 7.5425 10.9493 7.51334C10.6895 7.45607 10.4341 7.38004 10.1852 7.28584C9.91457 7.18739 9.6171 7.1925 9.35003 7.30019C9.08296 7.40788 8.86515 7.61054 8.73851 7.86917L8.61018 8.13167C8.04202 7.81561 7.51992 7.42306 7.05852 6.965C6.60046 6.5036 6.20791 5.9815 5.89185 5.41334L6.13685 5.25C6.39548 5.12337 6.59814 4.90556 6.70583 4.63849C6.81352 4.37142 6.81863 4.07395 6.72018 3.80334C6.62756 3.55392 6.55156 3.29864 6.49268 3.03917C6.46351 2.91084 6.44018 2.77667 6.42268 2.6425C6.35184 2.23162 6.13663 1.85952 5.81579 1.59323C5.49496 1.32693 5.08959 1.18394 4.67268 1.19H2.92268C2.67128 1.18764 2.42233 1.23948 2.19276 1.34198C1.9632 1.44448 1.75841 1.59524 1.59235 1.784C1.42629 1.97276 1.30284 2.19508 1.23042 2.43584C1.15801 2.67659 1.13831 2.93012 1.17268 3.17917C1.48344 5.62298 2.59953 7.8936 4.34464 9.63238C6.08976 11.3712 8.36443 12.479 10.8093 12.7808H11.031C11.4612 12.7815 11.8765 12.6236 12.1977 12.3375C12.3822 12.1724 12.5296 11.9701 12.6302 11.7439C12.7308 11.5176 12.7822 11.2726 12.781 11.025V9.275C12.7739 8.86981 12.6263 8.47966 12.3635 8.17114C12.1008 7.86263 11.7391 7.65487 11.3402 7.58334ZM11.6318 11.0833C11.6317 11.1662 11.614 11.248 11.5798 11.3235C11.5456 11.3989 11.4957 11.4662 11.4335 11.5208C11.3685 11.5774 11.2923 11.6197 11.2099 11.6448C11.1275 11.6699 11.0407 11.6774 10.9552 11.6667C8.77054 11.3866 6.74132 10.3871 5.1876 8.82601C3.63388 7.26489 2.64409 5.23095 2.37435 3.045C2.36506 2.95956 2.3732 2.87311 2.39827 2.7909C2.42333 2.70868 2.46481 2.63241 2.52018 2.56667C2.57485 2.50445 2.64213 2.45458 2.71757 2.42038C2.793 2.38618 2.87486 2.36844 2.95768 2.36834H4.70768C4.84333 2.36532 4.97579 2.40968 5.08226 2.4938C5.18874 2.57791 5.26255 2.6965 5.29101 2.82917C5.31435 2.98862 5.34351 3.14612 5.37851 3.30167C5.4459 3.60917 5.53558 3.91136 5.64685 4.20584L4.83018 4.585C4.76035 4.61704 4.69754 4.66256 4.64536 4.71894C4.59317 4.77531 4.55263 4.84145 4.52607 4.91353C4.49951 4.98562 4.48746 5.06225 4.49059 5.13901C4.49373 5.21577 4.512 5.29116 4.54435 5.36084C5.38388 7.15911 6.82941 8.60464 8.62768 9.44417C8.7697 9.50251 8.929 9.50251 9.07101 9.44417C9.14376 9.41815 9.21062 9.37794 9.2677 9.32586C9.32478 9.27379 9.37094 9.2109 9.40352 9.14084L9.76518 8.32417C10.0667 8.43202 10.3745 8.52162 10.6868 8.5925C10.8424 8.6275 10.9999 8.65667 11.1593 8.68C11.292 8.70847 11.4106 8.78228 11.4947 8.88875C11.5788 8.99522 11.6232 9.12769 11.6202 9.26334L11.6318 11.0833Z" fill="#172335"/>
</svg>
